<?xml version="1.0" standalone="no"?>
<!DOCTYPE svg PUBLIC "-//W3C//DTD SVG 20010904//EN"
 "http://www.w3.org/TR/2001/REC-SVG-20010904/DTD/svg10.dtd">
<svg version="1.0" xmlns="http://www.w3.org/2000/svg"
 width="200.000000pt" height="200.000000pt" viewBox="0 0 200.000000 200.000000"
 preserveAspectRatio="xMidYMid meet">
<metadata>
Created by potrace 1.14, written by Peter Selinger 2001-2017
</metadata>
<g transform="translate(0.000000,200.000000) scale(0.100000,-0.100000)"
fill="#000000" stroke="none">
<path d="M835 1905 c-273 -56 -301 -60 -463 -60 l-122 0 0 -158 0 -158 -30
-32 c-43 -45 -107 -180 -123 -258 -37 -177 4 -350 114 -490 l44 -54 0 -205 0
-205 35 -17 c52 -25 178 -56 240 -60 30 -2 58 -7 62 -13 5 -6 8 -5 8 3 0 10 5
10 20 2 11 -6 20 -7 20 -3 0 4 24 8 53 9 68 2 170 12 190 19 8 4 30 8 49 10
18 2 33 4 33 5 0 2 28 8 125 26 33 6 256 6 295 -1 17 -2 48 -7 70 -11 22 -3
46 -11 53 -16 6 -6 12 -8 12 -5 0 6 98 -21 115 -31 6 -4 15 -7 20 -7 6 -1 9
-6 8 -11 -1 -6 8 -9 21 -7 13 3 29 -1 37 -9 8 -7 21 -14 30 -16 14 -2 15 28
16 265 0 173 3 267 10 266 5 -1 10 4 10 10 0 21 35 67 46 60 5 -3 7 -1 3 5 -8
13 11 65 22 58 4 -2 9 5 9 17 1 12 10 56 21 97 27 106 22 242 -13 347 -18 52
-82 175 -96 184 -5 3 -10 68 -11 145 -1 76 -4 149 -6 160 -7 40 -235 127 -387
149 -23 3 -52 8 -65 11 -14 3 -90 6 -170 8 -133 4 -158 1 -305 -29z m410 -628
c17 -2 53 -9 81 -16 29 -7 58 -14 65 -15 8 -2 21 -6 29 -9 8 -3 34 -11 58 -17
61 -16 234 -87 251 -104 18 -19 16 -106 -5 -168 l-15 -47 -37 14 c-108 42
-180 55 -322 60 -126 4 -193 -5 -336 -45 -140 -39 -235 -49 -399 -40 -75 4
-207 28 -280 51 -61 19 -65 21 -72 57 -4 20 -7 40 -8 44 0 3 -2 9 -5 11 -3 3
-3 36 0 74 l5 68 45 -5 c61 -7 278 -5 315 2 60 12 131 31 205 56 41 13 90 25
108 27 18 1 35 5 39 8 5 6 211 1 278 -6z"/>
<path d="M1854 776 c1 -8 5 -18 8 -22 4 -3 5 1 4 10 -1 8 -5 18 -8 22 -4 3 -5
-1 -4 -10z"/>
</g>
</svg>
